{
  "accessors": [
    {
      "bufferView": 2,
      "componentType": 5126,
      "count": 552,
      "max": [
        1.1059379577636719,
        -0.6422557234764099,
        0.3992678225040436
      ],
      "min": [
        -1.110746145248413,
        -4.635961532592773,
        -1.4742339849472046
      ],
      "type": "VEC3"
    },
    {
      "bufferView": 2,
      "byteOffset": 6624,
      "componentType": 5126,
      "count": 552,
      "max": [
        1.0,
        0.7130711674690247,
        1.0
      ],
      "min": [
        -1.0,
        -0.48080071806907654,
        -1.0
      ],
      "type": "VEC3"
    },
    {
      "bufferView": 1,
      "componentType": 5126,
      "count": 552,
      "max": [
        1.0,
        1.0
      ],
      "min": [
        -8.940696716308594e-08,
        0.01000000536441803
      ],
      "type": "VEC2"
    },
    {
      "bufferView": 0,
      "componentType": 5125,
      "count": 864,
      "type": "SCALAR"
    },
    {
      "bufferView": 2,
      "byteOffset": 13248,
      "componentType": 5126,
      "count": 24,
      "max": [
        1.0209604501724243,
        -0.9592835903167725,
        0.36898717284202576
      ],
      "min": [
        -1.0189706087112427,
        -1.912192463874817,
        -1.4545544385910034
      ],
      "type": "VEC3"
    },
    {
      "bufferView": 2,
      "byteOffset": 13536,
      "componentType": 5126,
      "count": 24,
      "max": [
        1.0,
        0.9218342900276184,
        0.975261926651001
      ],
      "min": [
        -1.0,
        -0.9218342900276184,
        -0.9752619862556458
      ],
      "type": "VEC3"
    },
    {
      "bufferView": 1,
      "byteOffset": 4416,
      "componentType": 5126,
      "count": 24,
      "max": [
        0.875,
        1.0
      ],
      "min": [
        0.125,
        0.0
      ],
      "type": "VEC2"
    },
    {
      "bufferView": 0,
      "byteOffset": 3456,
      "componentType": 5125,
      "count": 36,
      "type": "SCALAR"
    },
    {
      "bufferView": 2,
      "byteOffset": 13824,
      "componentType": 5126,
      "count": 4,
      "max": [
        0.41458937525749207,
        -1.0740976333618164,
        0.13242387771606445
      ],
      "min": [
        -0.42897599935531616,
        -1.5955710411071777,
        -1.1078541278839111
      ],
      "type": "VEC3"
    },
    {
      "bufferView": 2,
      "byteOffset": 13872,
      "componentType": 5126,
      "count": 4,
      "max": [
        0.0,
        0.9218342900276184,
        0.3875841796398163
      ],
      "min": [
        0.0,
        0.9218342900276184,
        0.3875841796398163
      ],
      "type": "VEC3"
    },
    {
      "bufferView": 1,
      "byteOffset": 4608,
      "componentType": 5126,
      "count": 4,
      "max": [
        1.0,
        1.0
      ],
      "min": [
        0.0,
        0.0
      ],
      "type": "VEC2"
    },
    {
      "bufferView": 0,
      "byteOffset": 3600,
      "componentType": 5125,
      "count": 6,
      "type": "SCALAR"
    }
  ],
  "asset": {
    "extras": {
      "author": "JeremyV (https://sketchfab.com/JeremyV)",
      "license": "CC-BY-4.0 (http://creativecommons.org/licenses/by/4.0/)",
      "source": "https://sketchfab.com/3d-models/hill-obstacle-4581d27d23a74cab9f69473e270f7bd8",
      "title": "HILL Obstacle"
    },
    "generator": "Sketchfab-13.52.1",
    "version": "2.0"
  },
  "bufferViews": [
    {
      "buffer": 0,
      "byteLength": 3624,
      "name": "floatBufferViews",
      "target": 34963
    },
    {
      "buffer": 0,
      "byteLength": 4640,
      "byteOffset": 3624,
      "byteStride": 8,
      "name": "floatBufferViews",
      "target": 34962
    },
    {
      "buffer": 0,
      "byteLength": 13920,
      "byteOffset": 8264,
      "byteStride": 12,
      "name": "floatBufferViews",
      "target": 34962
    }
  ],
  "buffers": [
    {
      "byteLength": 22184,
      "uri": "scene.bin"
    }
  ],
  "images": [
    {
      "uri": "textures/hill_decal_baseColor.png"
    }
  ],
  "materials": [
    {
      "doubleSided": true,
      "name": "Metal.001",
      "pbrMetallicRoughness": {
        "baseColorFactor": [
          0.00807578,
          0.00807578,
          0.00807578,
          1.0
        ],
        "metallicFactor": 0.0,
        "roughnessFactor": 0.1542831368628934
      }
    },
    {
      "doubleSided": true,
      "name": "white_material",
      "pbrMetallicRoughness": {
        "baseColorFactor": [
          0.8,
          0.8,
          0.8,
          1.0
        ],
        "metallicFactor": 0.0
      }
    },
    {
      "alphaCutoff": 0.778669039753264,
      "alphaMode": "MASK",
      "doubleSided": true,
      "name": "hill_decal",
      "pbrMetallicRoughness": {
        "baseColorTexture": {
          "index": 0
        },
        "metallicFactor": 0.0,
        "roughnessFactor": 0.8211145618000169
      }
    }
  ],
  "meshes": [
    {
      "name": "hill_Metal.001_0",
      "primitives": [
        {
          "attributes": {
            "NORMAL": 1,
            "POSITION": 0,
            "TEXCOORD_0": 2
          },
          "indices": 3,
          "material": 0,
          "mode": 4
        }
      ]
    },
    {
      "name": "hill_white material_0",
      "primitives": [
        {
          "attributes": {
            "NORMAL": 5,
            "POSITION": 4,
            "TEXCOORD_0": 6
          },
          "indices": 7,
          "material": 1,
          "mode": 4
        }
      ]
    },
    {
      "name": "hill_hill decal_0",
      "primitives": [
        {
          "attributes": {
            "NORMAL": 9,
            "POSITION": 8,
            "TEXCOORD_0": 10
          },
          "indices": 11,
          "material": 2,
          "mode": 4
        }
      ]
    }
  ],
  "nodes": [
    {
      "children": [
        1
      ],
      "matrix": [
        1.0,
        0.0,
        0.0,
        0.0,
        0.0,
        2.220446049250313e-16,
        -1.0,
        0.0,
        0.0,
        1.0,
        2.220446049250313e-16,
        0.0,
        0.0,
        0.0,
        0.0,
        1.0
      ],
      "name": "Sketchfab_model"
    },
    {
      "children": [
        2
      ],
      "matrix": [
        0.009999999776482582,
        0.0,
        0.0,
        0.0,
        0.0,
        0.0,
        0.009999999776482582,
        0.0,
        0.0,
        -0.009999999776482582,
        0.0,
        0.0,
        0.0,
        0.0,
        0.0,
        1.0
      ],
      "name": "7d0a1458ed874aa2840918820706cfb1.fbx"
    },
    {
      "children": [
        3
      ],
      "name": "RootNode"
    },
    {
      "children": [
        4,
        5,
        6
      ],
      "matrix": [
        306.8776550292969,
        0.0,
        0.0,
        0.0,
        0.0,
        76.60483257853113,
        -64.27829824766067,
        0.0,
        0.0,
        237.95677712964047,
        283.5893228334862,
        0.0,
        0.0,
        416.8565673828125,
        0.0,
        1.0
      ],
      "name": "hill"
    },
    {
      "mesh": 0,
      "name": "hill_Metal.001_0"
    },
    {
      "mesh": 1,
      "name": "hill_white material_0"
    },
    {
      "mesh": 2,
      "name": "hill_hill decal_0"
    }
  ],
  "samplers": [
    {
      "magFilter": 9729,
      "minFilter": 9987,
      "wrapS": 33071,
      "wrapT": 33071
    }
  ],
  "scene": 0,
  "scenes": [
    {
      "name": "Sketchfab_Scene",
      "nodes": [
        0
      ]
    }
  ],
  "textures": [
    {
      "sampler": 0,
      "source": 0
    }
  ]
}
